# xmcd
# 
# Track frame offsets:
#     150
#     22305
#     42293
# 
# Disc length: 864
# 
# Revision: 5
# Processed by: cddbd v1.5.2PL0 Copyright (c) Steve Scherf et al.
# Submitted via: BonkEnc v1.0.6
# 
DISCID=22035e03
DTITLE=Superfly - 愛をこめて花束を
DYEAR=2008
DGENRE=JPop
TTITLE0=愛をこめて花束を
TTITLE1=愛と感謝
TTITLE2=Rhiannon
EXTD=YEAR: 2008
EXTT0=
EXTT1=
EXTT2=
PLAYORDER=
